<svg xmlns="http://www.w3.org/2000/svg" viewBox="0 0 195.78 307.03"><defs><style>.cls-1{fill:#c2e3f2;}.cls-2{fill:#1a2c5b;}</style></defs><g id="Layer_2" data-name="Layer 2"><g id="traço"><path class="cls-1" d="M188.33,90.83c1.4-52.64-53.21-84.43-91.71-84.75C42.47,8-9.39,55.69,11.1,122.63c8.63,21.22,29.3,46.43,35.24,70.57l6.43,24h89.8c5.14-24.13,15-49.94,28.77-70.27C185,128.33,190.23,103.07,188.33,90.83ZM55.67,79.33c8.61-.26,8.61,21.65,0,21.39C47.06,101,47.06,79.07,55.67,79.33Zm85.78,36.36c7.93,48.79-98.68,41.8-91.24,1,0,0-.24-7.13,5.46-7.13h80.2S142.26,109,141.45,115.69Zm-5.58-15c-8.61.26-8.61-21.65,0-21.39C144.48,79.07,144.48,101,135.87,100.72Z"/><polygon class="cls-1" points="53.73 233.85 141.76 233.85 141.76 224.22 53.62 224.22 53.73 233.85"/><path class="cls-1" d="M96,299.73c23.58-1,28.35-3.69,32.5-11H66.19C68.34,293,75.06,299.73,96,299.73Z"/><path class="cls-2" d="M144.24,11.63C71.29-25.67-21.55,30.63,4.48,124.9c8.3,21.21,29.23,46.49,35.1,70.11l7,26.19.21,19.65h102V221.18l7-26.17c5.85-23.62,26.81-48.9,35.09-70.11C208.25,72.09,176.41,24.77,144.24,11.63Zm-2.48,222.22h-88l-.11-9.63h88.14Zm42.48-111.22C175.62,143.89,154.93,169,149,193.2l-6.43,24H52.77l-6.43-24c-5.94-24.12-26.62-49.36-35.24-70.57C-28.51-29.71,223.39-29,184.24,122.63Z"/><path class="cls-2" d="M55.67,100.72c8.61.26,8.61-21.65,0-21.39C47.06,79.07,47.06,101,55.67,100.72Z"/><path class="cls-2" d="M135.87,79.33c-8.61-.26-8.61,21.65,0,21.39C144.48,101,144.48,79.07,135.87,79.33Z"/><path class="cls-2" d="M135.87,109.51H55.67c-10.94,1.29-11.49,39.72,40.36,40,50.58.8,44.77-28.43,45.42-33.83C142.26,109,135.87,109.51,135.87,109.51Z"/><path class="cls-2" d="M113.43,250.75c-19.29-.81-38.64-.38-57.71,3.11v3.44c20.92.06,63,.06,83.94,0v-3.44A164.23,164.23,0,0,0,113.43,250.75Z"/><path class="cls-2" d="M113.43,267.14c-19.29-.8-38.64-.38-57.71,3.12v3.13c26.88.43,57.05.47,83.94,0v-3.13A163.11,163.11,0,0,0,113.43,267.14Z"/><path class="cls-2" d="M135.05,281.73c-1.9,1-77.84-2.43-76.91,2.18C54,313.67,143.72,316.54,135.05,281.73Zm-8.19,9.89C121,302,70.44,303.42,66.19,288.73H128.5A8.92,8.92,0,0,1,126.86,291.62Z"/></g></g></svg>